<?xml version="1.0" standalone="no"?>
<!DOCTYPE svg PUBLIC "-//W3C//DTD SVG 20010904//EN"
 "http://www.w3.org/TR/2001/REC-SVG-20010904/DTD/svg10.dtd">
<svg version="1.0" xmlns="http://www.w3.org/2000/svg"
 width="89.000000pt" height="89.000000pt" viewBox="0 0 89.000000 89.000000"
 preserveAspectRatio="xMidYMid meet">
<metadata>
Created by potrace 1.14, written by Peter Selinger 2001-2017
</metadata>
<g transform="translate(0.000000,89.000000) scale(0.100000,-0.100000)"
fill="#000000" stroke="none">
<path d="M141 858 c-1 -39 -2 -42 -10 -53 -12 -16 -12 -71 0 -122 6 -26 15
-72 19 -102 10 -58 4 -78 -61 -204 -17 -32 -27 -62 -23 -70 8 -12 193 -237
204 -247 3 -3 15 -17 27 -33 l21 -27 19 23 c13 18 25 23 43 19 25 -5 75 -6
127 -2 17 2 32 -5 43 -20 l16 -22 17 25 c8 13 22 30 29 38 7 8 42 49 78 93 36
43 80 95 97 115 18 20 33 39 33 43 0 4 -22 54 -49 111 l-50 103 23 115 c21
111 21 116 5 179 -9 36 -18 56 -19 45 -4 -42 -12 -79 -20 -95 -5 -10 -50 -45
-100 -80 l-92 -62 -78 0 -79 0 -95 67 c-85 59 -96 70 -101 103 -4 20 -10 48
-15 62 l-8 25 -1 -27z m177 -498 c33 -16 42 -26 42 -45 0 -25 -1 -25 -29 -10
-28 14 -61 51 -61 67 0 11 1 11 48 -12z m284 -9 c-9 -16 -32 -37 -50 -46 l-34
-16 7 28 c8 33 3 28 45 46 49 21 51 21 32 -12z"/>
</g>
</svg>
